Coordinates
version=1
nRows=13
nColumns=40
inDegrees=yes

Units are S.I. units (second, meters, Newtons, ...)
If the header above contains a line with 'inDegrees', this indicates whether rotational values are in degrees (yes) or radians (no).

endheader
time	pelvis_tilt	pelvis_list	pelvis_rotation	pelvis_tx	pelvis_ty	pelvis_tz	hip_flexion_r	hip_adduction_r	hip_rotation_r	knee_angle_r	knee_angle_r_beta	ankle_angle_r	subtalar_angle_r	mtp_angle_r	hip_flexion_l	hip_adduction_l	hip_rotation_l	knee_angle_l	knee_angle_l_beta	ankle_angle_l	subtalar_angle_l	mtp_angle_l	lumbar_extension	lumbar_bending	lumbar_rotation	arm_flex_r	arm_add_r	arm_rot_r	elbow_flex_r	pro_sup_r	wrist_flex_r	wrist_dev_r	arm_flex_l	arm_add_l	arm_rot_l	elbow_flex_l	pro_sup_l	wrist_flex_l	wrist_dev_l
      1.67000000	      0.65557844	     -4.76122436	     -9.67823700	      1.81316617	      0.90221249	      0.22137576	    -22.23850388	      0.60465061	    -12.03500735	     12.68129887	      0.22133042	      2.21251104	     14.67458392	      0.00000000	     26.18281046	    -10.48823226	    -24.52271323	     10.02616699	      0.17498963	     -0.56583424	      6.97383858	      0.00000000	     -3.91831380	      2.48858255	     -2.85020147	     44.46580957	    -15.58723341	     44.46580957	     75.01867647	     44.99985126	      0.00000000	      0.00000000	     44.46580957	    -15.58723341	     44.46580957	     75.01867647	     44.99985126	      0.00000000	      0.00000000
      1.67500000	      0.87286562	     -4.42494772	     -9.81998137	      1.82135012	      0.90208452	      0.22121789	    -22.62275867	     -0.00962479	    -11.92483110	     13.08057691	      0.22829914	      1.15407168	     14.28795754	      0.00000000	     25.84016404	    -10.18542270	    -24.68970334	     10.68693601	      0.18652222	     -1.03940309	      6.05514113	      0.00000000	     -4.01951346	      2.04279633	     -2.45733924	     44.46625633	    -15.58642169	     44.46625633	     75.01862639	     44.99985238	      0.00000000	      0.00000000	     44.46625633	    -15.58642169	     44.46625633	     75.01862639	     44.99985238	      0.00000000	      0.00000000
      1.68000000	      1.23214564	     -3.89693687	    -10.21406221	      1.82951187	      0.90240831	      0.22188046	    -23.10207607	     -0.88118905	    -11.56736939	     13.46563566	      0.23501968	      0.13014342	     13.71337631	      0.00000000	     25.09214635	     -9.70308043	    -24.85035583	     10.91168973	      0.19044491	     -1.84826536	      5.11527354	      0.00000000	     -4.25955221	      1.33806193	     -1.53211196	     44.46793225	    -15.58338059	     44.46793225	     75.01843933	     44.99985651	      0.00000000	      0.00000000	     44.46793225	    -15.58338059	     44.46793225	     75.01843933	     44.99985651	      0.00000000	      0.00000000
      1.68500000	      1.38458390	     -3.64793842	    -10.24530166	      1.83768575	      0.90230109	      0.22148275	    -23.36834433	     -1.36190487	    -11.50989202	     13.92950990	      0.24311581	     -1.03769997	     13.38354121	      0.00000000	     24.89384389	     -9.48174910	    -24.86924694	     11.70386583	      0.20427099	     -2.35530718	      4.50858566	      0.00000000	     -4.29232336	      0.97714162	     -1.29641682	     44.46816927	    -15.58295105	     44.46816927	     75.01841299	     44.99985708	      0.00000000	      0.00000000	     44.46816927	    -15.58295105	     44.46816927	     75.01841299	     44.99985708	      0.00000000	      0.00000000
      1.69000000	      1.57788530	     -3.27061572	    -10.37839258	      1.84589527	      0.90238197	      0.22138263	    -23.59167643	     -1.99889380	    -11.39991318	     14.48872714	      0.25287599	     -2.29640818	     12.62753227	      0.00000000	     24.61220576	     -9.18088851	    -25.11288668	     12.46305980	      0.21752143	     -2.97474036	      3.75320486	      0.00000000	     -4.35658215	      0.45907387	     -0.91033268	     44.46867091	    -15.58204231	     44.46867091	     75.01835732	     44.99985829	      0.00000000	      0.00000000	     44.46867091	    -15.58204231	     44.46867091	     75.01835732	     44.99985829	      0.00000000	      0.00000000
      1.69500000	      1.77373489	     -2.92893933	    -10.48035557	      1.85404511	      0.90258288	      0.22122753	    -23.78234246	     -2.58742743	    -11.26970515	     15.07904775	      0.26317903	     -3.64566469	     11.96149416	      0.00000000	     24.31591099	     -8.90218548	    -25.28237050	     13.17870032	      0.23001171	     -3.62285051	      3.17805900	      0.00000000	     -4.43426323	     -0.02706037	     -0.52930543	     44.46911914	    -15.58123081	     44.46911914	     75.01830768	     44.99985937	      0.00000000	      0.00000000	     44.46911914	    -15.58123081	     44.46911914	     75.01830768	     44.99985937	      0.00000000	      0.00000000
      1.70000000	      1.96197057	     -2.62587475	    -10.52315218	      1.86221935	      0.90285918	      0.22093348	    -23.93253390	     -3.12709060	    -11.20180141	     15.71519087	      0.27428182	     -5.09166108	     11.35847709	      0.00000000	     24.05232118	     -8.65137719	    -25.37986003	     13.94265004	      0.24334515	     -4.24424170	      2.67522839	      0.00000000	     -4.50089681	     -0.45640008	     -0.22213329	     44.46938105	    -15.58075685	     44.46938105	     75.01827871	     44.99985999	      0.00000000	      0.00000000	     44.46938105	    -15.58075685	     44.46938105	     75.01827871	     44.99985999	      0.00000000	      0.00000000
      1.70500000	      2.24545565	     -2.08451712	    -10.80388050	      1.87032693	      0.90344399	      0.22126902	    -24.02282425	     -3.97834032	    -10.92633960	     16.52960445	      0.28849602	     -6.49404220	     10.25937975	      0.00000000	     23.54918311	     -8.21781507	    -25.79685210	     14.46445440	      0.25245235	     -4.98093830	      2.19590757	      0.00000000	     -4.62034532	     -1.11878011	      0.59014743	     44.47086019	    -15.57808288	     44.47086019	     75.01811573	     44.99986347	      0.00000000	      0.00000000	     44.47086019	    -15.57808288	     44.47086019	     75.01811573	     44.99986347	      0.00000000	      0.00000000
      1.71000000	      2.43281435	     -1.74544211	    -10.74137968	      1.87849103	      0.90383441	      0.22077418	    -24.03941808	     -4.52885612	    -11.00083302	     17.36257428	      0.30303409	     -8.09702878	      9.48631354	      0.00000000	     23.33556671	     -7.90314303	    -25.83812427	     15.28530005	      0.26677881	     -5.52271192	      1.73291085	      0.00000000	     -4.68691888	     -1.53788287	      0.88404101	     44.47130259	    -15.57728408	     44.47130259	     75.01806719	     44.99986449	      0.00000000	      0.00000000	     44.47130259	    -15.57728408	     44.47130259	     75.01806719	     44.99986449	      0.00000000	      0.00000000
      1.71500000	      2.56830400	     -1.31402843	    -10.80444934	      1.88664274	      0.90421501	      0.22068770	    -23.83848619	     -5.21050504	    -11.02259422	     18.46473910	      0.32227049	     -9.58935499	      8.48123199	      0.00000000	     23.10590195	     -7.53846647	    -25.91834713	     15.98833346	      0.27904906	     -6.07367084	      1.25868655	      0.00000000	     -4.62991498	     -2.11577609	      1.32953057	     44.47231386	    -15.57545970	     44.47231386	     75.01795655	     44.99986681	      0.00000000	      0.00000000	     44.47231386	    -15.57545970	     44.47231386	     75.01795655	     44.99986681	      0.00000000	      0.00000000
      1.72000000	      2.78023557	     -0.97808814	    -10.67497489	      1.89473877	      0.90475245	      0.21995410	    -23.75626264	     -5.76551744	    -11.14460623	     19.48280100	      0.34003902	    -11.30509855	      7.69983868	      0.00000000	     22.86659552	     -7.17583340	    -25.86888464	     16.79284518	      0.29309044	     -6.47086186	      0.80384332	      0.00000000	     -4.74361617	     -2.47932317	      1.55300592	     44.47266200	    -15.57483219	     44.47266200	     75.01791857	     44.99986760	      0.00000000	      0.00000000	     44.47266200	    -15.57483219	     44.47266200	     75.01791857	     44.99986760	      0.00000000	      0.00000000
      1.72500000	      2.89371964	     -0.56093648	    -10.57890197	      1.90285743	      0.90511715	      0.21943495	    -23.42174573	     -6.40030749	    -11.32079579	     20.77021912	      0.36250871	    -12.90719215	      6.58999325	      0.00000000	     22.70356661	     -6.73827512	    -25.74951341	     17.52072057	      0.30579426	     -6.84094684	      0.30889626	      0.00000000	     -4.69651605	     -2.97388583	      1.83267315	     44.47313746	    -15.57397561	     44.47313746	     75.01786679	     44.99986868	      0.00000000	      0.00000000	     44.47313746	    -15.57397561	     44.47313746	     75.01786679	     44.99986868	      0.00000000	      0.00000000
      1.73000000	      3.00859700	     -0.13462614	    -10.44504622	      1.91092571	      0.90550486	      0.21877646	    -22.99146210	     -7.07234057	    -11.57594680	     22.23150545	      0.38801297	    -14.51966396	      5.55059248	      0.00000000	     22.53090886	     -6.25014694	    -25.56961613	     18.22150943	      0.31802533	     -7.11281529	     -0.26207481	      0.00000000	     -4.63687119	     -3.46231210	      2.08677749	     44.47362366	    -15.57310022	     44.47362366	     75.01781396	     44.99986976	      0.00000000	      0.00000000	     44.47362366	    -15.57310022	     44.47362366	     75.01781396	     44.99986976	      0.00000000	      0.00000000
